<svg width="400pt" height="80pt" viewBox="0 0 400 80" xmlns="http://www.w3.org/2000/svg"><defs><clipPath id="a"><path d="M19 0h305v82.234H19Zm0 0"/></clipPath><clipPath id="b"><path d="M129 0h195v82.234H129Zm0 0"/></clipPath><clipPath id="c"><path d="M119 0h205v82.234H119Zm0 0"/></clipPath><clipPath id="d"><path d="M29 0h295v82.234H29Zm0 0"/></clipPath><clipPath id="e"><path d="M38 0h286v82.234H38Zm0 0"/></clipPath><clipPath id="f"><path d="M110 0h214v82.234H110Zm0 0"/></clipPath></defs><path fill="#fff688" d="M29.168 47.229c0-6.438 1.195-12.586 3.277-18.305l-5.586-2.035c-2.316 6.355-3.64 13.183-3.64 20.34 0 7.156 1.324 13.984 3.64 20.34l5.586-2.036c-2.082-5.719-3.277-11.863-3.277-18.304"/><g clip-path="url(#a)" transform="translate(-165.777 3.83)"><path fill="none" stroke-width="12" stroke="#1b284e" stroke-miterlimit="10" d="M-.002.002c0 6.437 1.195 12.585 3.277 18.304l-5.585 2.035C-4.627 13.986-5.951 7.158-5.951.001c0-7.156 1.324-13.984 3.64-20.34l5.586 2.036C1.193-12.584-.002-6.44-.002.002zm0 0" transform="matrix(1 0 0 -1 194.947 43.4)" style="stroke-linejoin:round"/></g><path fill="#fff688" d="m138.629 26.889-5.59 2.031c2.086 5.723 3.281 11.867 3.281 18.309 0 6.441-1.195 12.585-3.28 18.308l5.589 2.031c2.316-6.355 3.644-13.183 3.644-20.34 0-7.156-1.328-13.984-3.644-20.34"/><g clip-path="url(#b)" transform="translate(-165.777 3.83)"><path fill="none" stroke-width="12" stroke="#1b284e" stroke-miterlimit="10" d="m0-.002-5.59-2.031C-3.504-7.756-2.309-13.9-2.309-20.342c0-6.441-1.195-12.586-3.28-18.308L0-40.682c2.315 6.356 3.644 13.184 3.644 20.34C3.645-13.185 2.316-6.357 0-.002zm0 0" transform="matrix(1 0 0 -1 304.406 23.057)" style="stroke-linejoin:round"/></g><path fill="#fff688" d="M126.54 47.229c0 5.265-.977 10.289-2.68 14.964l5.59 2.036c1.933-5.309 3.042-11.02 3.042-17s-1.11-11.688-3.047-17l-5.586 2.035c1.704 4.675 2.68 9.699 2.68 14.965"/><g clip-path="url(#c)" transform="translate(-165.777 3.83)"><path fill="none" stroke-width="12" stroke="#1b284e" stroke-miterlimit="10" d="M292.316 43.398c0 5.266-.976 10.29-2.68 14.965l5.59 2.035c1.934-5.308 3.044-11.02 3.044-17s-1.11-11.687-3.047-17l-5.586 2.036c1.703 4.675 2.68 9.699 2.68 14.964Zm0 0"/></g><path fill="#fff688" d="m36.04 64.225 5.589-2.032c-1.703-4.675-2.68-9.699-2.68-14.964 0-5.262.977-10.29 2.68-14.965l-5.59-2.035c-1.933 5.312-3.043 11.02-3.043 17s1.11 11.687 3.043 16.996"/><g clip-path="url(#d)" transform="translate(-165.777 3.83)"><path fill="none" stroke-width="12" stroke="#1b284e" stroke-miterlimit="10" d="m201.816 60.395 5.59-2.032c-1.703-4.675-2.68-9.699-2.68-14.965 0-5.261.977-10.289 2.68-14.964l-5.59-2.036c-1.933 5.313-3.043 11.02-3.043 17s1.11 11.688 3.043 16.997zm0 0"/></g><path fill="#fff688" d="M48.727 47.229c0-4.086.761-7.993 2.082-11.622l-5.586-2.035c-1.555 4.266-2.446 8.852-2.446 13.657 0 4.804.891 9.39 2.442 13.656l5.59-2.035c-1.32-3.63-2.082-7.532-2.082-11.621"/><g clip-path="url(#e)" transform="translate(-165.777 3.83)"><path fill="none" stroke-width="12" stroke="#1b284e" stroke-miterlimit="10" d="M214.504 43.398c0-4.086.762-7.992 2.082-11.62L211 29.741c-1.555 4.266-2.445 8.852-2.445 13.656 0 4.805.89 9.391 2.441 13.657l5.59-2.035c-1.32-3.63-2.082-7.532-2.082-11.622zm0 0"/></g><path fill="#fff688" d="m120.266 33.572-5.59 2.032c1.324 3.632 2.082 7.535 2.082 11.625S116 55.22 114.68 58.854l5.586 2.035c1.554-4.27 2.445-8.856 2.445-13.66 0-4.805-.89-9.391-2.445-13.657"/><g clip-path="url(#f)" transform="translate(-165.777 3.83)"><path fill="none" stroke-width="12" stroke="#1b284e" stroke-miterlimit="10" d="m286.043 29.742-5.59 2.031c1.324 3.633 2.082 7.536 2.082 11.625 0 4.09-.758 7.993-2.078 11.625l5.586 2.036c1.555-4.27 2.445-8.856 2.445-13.66 0-4.805-.89-9.391-2.445-13.657zm0 0"/></g><path fill="#fff688" d="M29.168 47.229c0-6.438 1.195-12.586 3.277-18.305l-5.586-2.035c-2.316 6.355-3.64 13.183-3.64 20.34 0 7.156 1.324 13.984 3.64 20.34l5.586-2.036c-2.082-5.719-3.277-11.863-3.277-18.304m109.461-20.34-5.59 2.031c2.086 5.723 3.281 11.867 3.281 18.309 0 6.441-1.195 12.585-3.28 18.308l5.589 2.031c2.316-6.355 3.644-13.183 3.644-20.34 0-7.156-1.328-13.984-3.644-20.34M126.54 47.229c0 5.265-.977 10.289-2.68 14.964l5.59 2.036c1.933-5.309 3.042-11.02 3.042-17s-1.11-11.688-3.047-17l-5.586 2.035c1.704 4.675 2.68 9.699 2.68 14.965M36.04 64.225l5.589-2.032c-1.703-4.675-2.68-9.699-2.68-14.964 0-5.262.977-10.29 2.68-14.965l-5.59-2.035c-1.933 5.312-3.043 11.02-3.043 17s1.11 11.687 3.043 16.996m12.688-16.996c0-4.086.761-7.993 2.082-11.622l-5.586-2.035c-1.555 4.266-2.446 8.852-2.446 13.657 0 4.804.891 9.39 2.442 13.656l5.59-2.035c-1.32-3.63-2.082-7.532-2.082-11.621m71.539-13.657-5.59 2.032c1.324 3.632 2.082 7.535 2.082 11.625S116 55.22 114.68 58.854l5.586 2.035c1.554-4.27 2.445-8.856 2.445-13.66 0-4.805-.89-9.391-2.445-13.657"/><path d="M97.1 76.168C94.178 66.965 84.287 62.57 72.494 62.57c-11.789 0-21.68 4.395-24.601 13.598zm-18.641-33.66c-1.43 16.344.309 30.058 5.219 30.488 4.91.43 10.05-12.473 11.48-28.82 1.43-16.344-1.39-29.946-6.3-30.375-4.91-.426-8.965 12.36-10.4 28.707m-11.925 0C65.103 26.16 61.05 13.375 56.135 13.8c-4.91.43-7.73 14.031-6.301 30.375 1.43 16.347 6.57 29.25 11.48 28.82 4.91-.43 6.649-14.144 5.22-30.488" style="fill:#fff;fill-opacity:1;stroke:#1b284e;stroke-width:11.906;stroke-linejoin:round;stroke-dasharray:none;stroke-opacity:1" transform="translate(10.248 3.83)"/><path d="M97.1 76.168C94.178 66.965 84.287 62.57 72.494 62.57c-11.789 0-21.68 4.395-24.601 13.598zm-18.641-33.66c-1.43 16.344.309 30.058 5.219 30.488 4.91.43 10.05-12.473 11.48-28.82 1.43-16.344-1.39-29.946-6.3-30.375-4.91-.426-8.965 12.36-10.4 28.707m-11.925 0C65.103 26.16 61.05 13.375 56.135 13.8c-4.91.43-7.73 14.031-6.301 30.375 1.43 16.347 6.57 29.25 11.48 28.82 4.91-.43 6.649-14.144 5.22-30.488" style="fill:#fff;fill-opacity:1;stroke:none;stroke-opacity:1" transform="translate(10.248 3.83)"/><path d="M160.86 53.616q7.655-2.992 12.671-6.556.176-.132.044-.264-.044-.044-.132-.044h-7.172q-1.54 0-2.64-1.1t-1.1-2.64v-9.504q0-1.54 1.1-2.64t2.64-1.1h9.46q.176 0 .352-.132.176-.176.176-.396v-1.188q0-.484-.528-.484h-14.168q-.968 0-1.628-.66-.616-.66-.616-1.628 0-.968.616-1.628.66-.66 1.628-.66h14.3q.396 0 .396-.396 0-1.232.836-2.068.88-.88 2.112-.88h.088q1.232 0 2.068.88.88.836.88 2.068 0 .396.396.396h14.3q.968 0 1.584.66.66.66.66 1.628 0 .968-.66 1.628-.616.66-1.584.66h-14.168q-.528 0-.528.484v1.188q0 .22.176.396.176.132.352.132h9.46q1.54 0 2.64 1.1t1.1 2.64v9.504q0 1.54-1.1 2.64t-2.64 1.1h-7.172q-.132 0-.176.132 0 .088.088.176 4.928 3.52 12.628 6.556 1.012.396 1.408 1.408.44 1.012-.044 1.98-.484 1.012-1.54 1.408-1.056.396-2.112-.044-7.7-3.432-12.672-7.348-.132-.088-.264 0-.132.044-.132.176v5.764q0 1.276-.88 2.112-.88.88-2.112.88-1.232 0-2.112-.88-.88-.836-.88-2.112v-5.764q0-.176-.132-.22-.132-.044-.264.044-5.28 4.092-12.672 7.348-1.056.44-2.112.044t-1.54-1.408q-.484-.968-.088-1.98t1.408-1.408zm21.383-19.272v1.584q0 .484.528.484h7.216q.484 0 .484-.484v-1.584q0-.484-.484-.484h-7.216q-.528 0-.528.484zm0 6.248v1.716q0 .484.528.484h7.216q.484 0 .484-.484v-1.716q0-.484-.484-.484h-7.216q-.528 0-.528.484zm-14.212-6.248v1.584q0 .484.484.484h7.216q.528 0 .528-.484v-1.584q0-.484-.528-.484h-7.216q-.484 0-.484.484zm.484 8.448h7.216q.528 0 .528-.484v-1.716q0-.484-.528-.484h-7.216q-.484 0-.484.484v1.716q0 .484.484.484zm39.894-8.932q-1.056 0-1.804-.748t-.748-1.804q0-1.056.748-1.804.748-.792 1.804-.792h12.98q.528 0 .528-.484V23.08q0-1.276.88-2.112.88-.88 2.112-.88 1.232 0 2.112.88.88.836.88 2.112v5.148q0 .484.528.484h12.98q1.056 0 1.804.792.748.748.748 1.804t-.748 1.804q-.748.748-1.804.748h-12.716q-.484 0-.396.484 1.98 12.364 13.992 19.316.968.572 1.232 1.672.264 1.056-.352 1.936-.704 1.012-1.892 1.276-1.144.264-2.2-.308-4.444-2.596-8.008-6.6-3.52-4.048-5.72-8.932-.088-.132-.22-.132t-.176.132q-4.664 10.164-14.212 15.576-1.056.572-2.244.264-1.144-.264-1.848-1.276-.616-.88-.352-1.936.264-1.1 1.232-1.672 12.012-6.952 13.992-19.316.088-.484-.396-.484zm44.425 4.048q-1.012 0-1.76-.748t-.748-1.76q0-1.012.748-1.76t1.76-.748h2.024q.352 0 .352-.352 0-.308-.308-.528l-1.056-.66q-1.232-.704-1.452-2.112-.22-1.408.704-2.508 2.2-2.552 4.18-5.588.704-1.1 1.936-1.628 1.276-.528 2.552-.264h.088q1.056.22 1.496 1.232.484.968-.088 1.892-.088.088-.044.22.088.132.22.132h23.276q.968 0 1.628.704.704.66.704 1.628 0 .968-.704 1.672-.66.66-1.628.66h-.44q-.352 0-.352.396v4.62q0 .484.484.484h1.892q1.012 0 1.76.748t.748 1.76q0 1.012-.748 1.76t-1.76.748h-1.892q-.484 0-.484.484v4.884q0 .484.484.484h1.232q.968 0 1.628.66.66.66.66 1.628 0 .968-.66 1.628-.66.616-1.628.616h-34.144q-.968 0-1.628-.616-.66-.66-.66-1.628 0-.968.66-1.628.66-.66 1.628-.66h1.232q.484 0 .484-.484v-4.884q0-.484-.484-.484zm24.596-9.988v4.488q0 .484.484.484h1.892q.484 0 .484-.484V27.92q0-.528-.484-.528h-1.892q-.484 0-.484.528zm0 10.472v4.884q0 .484.484.484h1.892q.484 0 .484-.484v-4.884q0-.484-.484-.484h-1.892q-.484 0-.484.484zm-8.36-10.472v4.488q0 .484.484.484h2.024q.484 0 .484-.484V27.92q0-.528-.484-.528h-2.024q-.484 0-.484.528zm0 10.472v4.884q0 .484.484.484h2.024q.484 0 .484-.484v-4.884q0-.484-.484-.484h-2.024q-.484 0-.484.484zm-8.228-10.472v4.488q0 .484.484.484h1.892q.484 0 .484-.484V27.92q0-.528-.484-.528h-1.892q-.484 0-.484.528zm0 10.472v4.884q0 .484.484.484h1.892q.484 0 .484-.484v-4.884q0-.484-.484-.484h-1.892q-.484 0-.484.484zm-5.896 12.54q.572-.924 1.628-1.232 1.056-.352 2.068.132.968.484 1.276 1.54.352 1.012-.176 1.936-1.452 2.508-3.168 4.884-.66.924-1.804 1.1-1.1.176-2.068-.44-.924-.572-1.1-1.628-.176-1.056.44-1.936 1.408-1.936 2.904-4.356zm10.384-.792q1.188-.132 2.112.528.924.66 1.1 1.804.396 2.068.66 4.268.176 1.144-.572 2.024-.704.924-1.848 1.056-1.144.132-2.024-.616-.88-.704-1.056-1.848-.352-2.728-.616-4.18-.22-1.1.44-1.98.704-.924 1.804-1.056zm8.668-.176q1.144-.264 2.156.264 1.056.528 1.452 1.628.572 1.54 1.54 4.444.308 1.056-.264 1.98-.528.968-1.584 1.188-1.1.264-2.112-.308-.968-.572-1.32-1.672-.836-2.464-1.54-4.4-.352-1.012.132-1.936.528-.968 1.54-1.188zm8.536-.264q.968-.528 2.068-.264 1.144.264 1.76 1.188 2.112 3.168 3.036 4.708.572.924.264 1.936-.308 1.056-1.276 1.54-.968.528-2.024.22-1.056-.308-1.628-1.232-1.496-2.464-3.036-4.708-.572-.88-.352-1.892.264-1.012 1.188-1.496zm29.73-23.32q0-1.54 1.1-2.64t2.64-1.1h3.696q.44 0 .528-.44 0-.044.044-.132.352-1.276 1.364-2.024t2.288-.704h.176q1.144.088 1.804.968.66.88.396 1.98-.088.352.308.352h5.148q1.54 0 2.64 1.1t1.1 2.64v10.428q0 1.54-1.1 2.64t-2.64 1.1h-4.136q-.176 0-.308.176-.088.176 0 .352.88 2.068 2.288 4.444.264.396.572.088 1.056-1.276 2.112-2.64.572-.748 1.496-.88.968-.132 1.672.484.748.616.88 1.628.176.968-.396 1.76-1.232 1.716-2.904 3.52-.308.396 0 .792 1.1 1.364 2.508 2.684.88.836 1.056 2.024.176 1.144-.484 2.112-.616.924-1.716 1.012-1.1.132-1.848-.66-3.08-3.212-5.456-7.436-.088-.132-.22.088v2.376q0 1.804-.044 2.86-.044 1.012-.308 1.936-.22.924-.572 1.32-.308.396-1.056.66-.748.308-1.628.352-.836.088-2.332.088-.22 0-1.452-.088-1.012-.044-1.76-.792-.704-.704-.748-1.716-.044-.968.616-1.628.66-.66 1.628-.572h.66q1.144 0 1.32-.264.22-.264.22-1.76V41.032q0-.484-.484-.484h-4.928q-1.54 0-2.64-1.1t-1.1-2.64zm5.28 1.144v1.628q0 .484.484.484h11.264q.484 0 .484-.484v-1.628q0-.484-.484-.484h-11.264q-.484 0-.484.484zm0 6.6v1.76q0 .528.484.528h11.264q.484 0 .484-.528v-1.76q0-.484-.484-.484h-11.264q-.484 0-.484.484zm-17.732 3.652.396-.66q.264-.44 0-.836-1.628-2.376-3.124-4.488-1.672-2.376-.484-4.972l.308-.66q.308-.66 1.012-.704.704-.088 1.144.484.088.088.176.088t.132-.088q1.232-2.728 1.804-4.136.352-.924 1.232-1.32.924-.44 1.848-.132.924.352 1.32 1.232t0 1.76q-1.628 3.696-3.212 6.732-.22.44.044.836.352.484.572.88.088.132.264.132.22 0 .308-.176 1.232-2.068 2.992-5.412.484-.88 1.408-1.188.924-.352 1.804.044.88.396 1.188 1.32.308.88-.132 1.76-1.364 2.508-2.552 4.532-.044.088 0 .176.088.088.132.044 1.012-.264 1.892.264.924.528 1.188 1.496.88 3.212 1.584 6.644.088.44.044.616t.044.352q.132.132.308.132h3.74q1.936 0 2.86 1.628 1.012 1.716.308 3.476-2.112 5.412-6.732 9.812-.748.704-1.848.66-1.056-.044-1.804-.792-.66-.704-.616-1.672.088-1.012.836-1.672 3.564-3.124 5.412-6.732.088-.132 0-.264t-.264-.132h-2.376q-.924 0-1.584-.66-.044-.088-.088.044-.044.044-.044.088.308 2.596.528 5.016.044.704-.44 1.276-.44.572-1.188.66-.704.044-1.276-.396-.572-.484-.66-1.232-.132-2.42-.396-4.796-.088-.748.352-1.32.44-.572 1.144-.66.748-.132 1.364.396.176.088.176-.088-.044-.176-.044-.484 0-.352.044-.484.044-.308-.352-.396-.924-.132-1.144-1.1-.088-.176-.22-.176l-1.804.132q-.484 0-.484.528V57.18q0 1.144-.836 1.936-.792.836-1.936.836t-1.98-.836q-.792-.792-.792-1.936V43.584q0-.44-.484-.44l-2.464.176q-1.012.088-1.804-.616-.748-.704-.792-1.76-.044-1.056.66-1.804.748-.792 1.804-.88l.836-.044q.44 0 .748-.44zm5.632-.352q-.088.132-.044.264.088.132.264.132l1.98-.132q.484 0 .396-.484-.088-.352-.308-1.144-.176-.792-.308-1.188-.044-.132-.176-.132-.132-.044-.22.088-1.056 1.76-1.584 2.596zm-6.908 19.624q-.66.484-1.452.352-.792-.132-1.276-.792-.44-.66-.308-1.452.704-4.576 1.012-8.448.044-.792.66-1.276.616-.528 1.408-.44.792.044 1.32.704.528.616.44 1.408-.308 4.224-1.012 8.712-.132.792-.792 1.232zM378.073 36.5q-.22.44.132.792 2.156 2.068 3.344 4.796 1.232 2.728 1.232 5.544 0 4.092-1.628 5.896-1.628 1.76-5.192 1.76h-.264q-1.1 0-1.98-.704-.836-.704-1.056-1.76-.176-.924.396-1.672.616-.792 1.584-.88 1.496-.176 1.98-.792.528-.66.528-2.2 0-3.476-2.86-7.26-1.012-1.32-1.232-2.948-.176-1.672.528-3.212 1.716-3.696 2.992-7.744.044-.176-.088-.308-.088-.176-.308-.176h-4.268q-.484 0-.484.528v30.888q0 1.144-.836 1.936-.836.836-1.98.836-1.144 0-1.98-.836-.792-.792-.792-1.936V24.84q0-1.54 1.1-2.64t2.64-1.1h10.56q.968 0 1.628.66.66.66.66 1.628 0 2.332-.704 4.4-1.628 4.664-3.652 8.712zm-15.972-1.452q1.012 0 1.716.748.704.704.704 1.672t-.704 1.716q-.704.704-1.716.704h-18.128q-1.012 0-1.716-.704-.704-.748-.704-1.716t.704-1.672q.704-.748 1.716-.748h1.584q.484 0 .396-.484-.616-2.64-1.716-6.6-.044-.176-.308-.176-.792 0-1.364-.572-.572-.572-.572-1.364v-.44q0-.968.704-1.628.704-.704 1.672-.704h5.104q.44 0 .44-.44v-.44q0-1.232.836-2.068.88-.88 2.112-.88 1.232 0 2.068.88.88.836.88 2.068v.44q0 .44.44.44h5.5q.968 0 1.628.704.704.66.704 1.628v.572q0 .748-.528 1.276t-1.276.528q-.176 0-.264.22-.572 2.992-1.716 6.6-.044.176.044.308.132.132.308.132zm-6.952-.528q1.012-3.212 1.628-6.292.088-.44-.396-.44h-6.38q-.22 0-.308.176-.088.132-.044.308.616 2.2 1.54 6.292.088.484.616.484h2.684q.528 0 .66-.528zm-7.436 25.3h-1.452q-1.188 0-2.024-.836-.836-.836-.836-2.024V46.312q0-1.54 1.1-2.64t2.64-1.1h12.1q1.54 0 2.64 1.1t1.1 2.64v10.78q0 1.144-.792 1.936t-1.936.792h-1.364q-.616 0-1.012-.396t-.396-1.012q0-.22-.176-.22h-8.008q-.176 0-.176.22 0 .616-.396 1.012t-1.012.396zm1.408-12.056v5.412q0 .484.484.484h7.392q.484 0 .484-.484v-5.412q0-.484-.484-.484h-7.392q-.484 0-.484.484z" aria-label="東大無線部" style="font-weight:700;font-size:44px;line-height:1.25;font-family:'Rounded-X M+ 1m';-inkscape-font-specification:'Rounded-X M+ 1m Bold';letter-spacing:1.6575px;fill:#1b284e;stroke-width:.75"/><path d="M199.982 74.938q-.784 0-1.484-.196t-1.246-.588q-.546-.406-.868-.994-.308-.588-.336-1.372 0-.126.084-.21.084-.098.224-.098h1.596q.182 0 .28.098.112.098.168.28.07.448.294.728.224.28.56.42.35.126.784.126.798 0 1.218-.518.434-.518.434-1.47V66.86h-4.662q-.14 0-.238-.098-.098-.098-.098-.238v-1.176q0-.154.098-.252t.238-.098h6.594q.154 0 .252.098t.098.252V71.2q0 1.204-.504 2.044-.504.826-1.4 1.26-.896.434-2.086.434zm7.436-.14q-.126 0-.21-.084-.084-.098-.084-.21 0-.07.014-.126l3.332-9.002q.042-.154.168-.266.126-.112.35-.112h1.792q.224 0 .35.112.126.112.168.266l3.332 9.002q.014.056.014.126 0 .112-.084.21-.084.084-.21.084h-1.456q-.21 0-.308-.098t-.126-.182l-.602-1.568h-3.948l-.602 1.568q-.028.084-.126.182-.098.098-.308.098zm3.01-3.654h2.898l-1.442-4.032zm11.91 3.654q-.14 0-.252-.098-.098-.098-.098-.252V67.49l-2.016 1.554q-.126.098-.266.07-.126-.028-.224-.154l-.7-.91q-.084-.126-.07-.266.028-.14.154-.224l3.192-2.464q.084-.056.154-.07.084-.028.182-.028h1.484q.14 0 .238.098.098.098.098.252v9.1q0 .154-.098.252t-.238.098zm6.46 0q-.154 0-.252-.098-.098-.112-.098-.252v-1.176q0-.196.084-.322t.126-.182l4.704-5.908h-4.438q-.14 0-.238-.098-.098-.098-.098-.238v-1.176q0-.154.098-.252t.238-.098h6.874q.154 0 .252.098.112.098.112.252v1.162q0 .154-.056.28-.056.112-.126.196l-4.578 5.936h4.564q.154 0 .252.098t.098.252v1.176q0 .154-.098.252t-.252.098zm11.672 0q-.154 0-.252-.098t-.098-.252v-9.1q0-.154.098-.252t.252-.098h1.554q.154 0 .252.098t.098.252v7.574h4.34q.154 0 .252.098t.098.252v1.176q0 .154-.098.252t-.252.098zm13.898.14q-1.274 0-2.198-.42-.924-.42-1.442-1.26-.518-.854-.56-2.142-.014-.602-.014-1.19 0-.602.014-1.218.042-1.26.56-2.114.532-.868 1.456-1.302.938-.434 2.184-.434 1.232 0 2.156.434.938.434 1.47 1.302.532.854.56 2.114.028.616.028 1.218 0 .588-.028 1.19-.042 1.288-.56 2.142-.518.84-1.442 1.26-.924.42-2.184.42zm0-1.806q.812 0 1.33-.49.532-.504.56-1.596.028-.616.028-1.148 0-.546-.028-1.148-.014-.728-.266-1.19-.252-.462-.672-.672-.406-.224-.952-.224-.546 0-.966.224-.42.21-.672.672-.238.462-.266 1.19-.014.602-.014 1.148 0 .532.014 1.148.042 1.092.56 1.596.518.49 1.344.49zm11.794 2.842q-.126 0-.21-.098-.084-.084-.084-.196 0-.07.028-.14l4.76-11.424q.042-.112.14-.21.112-.112.322-.112h1.078q.126 0 .21.098.084.084.084.196 0 .056-.028.14l-4.774 11.424q-.042.098-.154.21-.098.112-.322.112zm17.226-1.036q-.784 0-1.484-.196t-1.246-.588q-.546-.406-.868-.994-.308-.588-.336-1.372 0-.126.084-.21.084-.098.224-.098h1.596q.182 0 .28.098.112.098.168.28.07.448.294.728.224.28.56.42.35.126.784.126.798 0 1.218-.518.434-.518.434-1.47V66.86h-4.662q-.14 0-.238-.098-.098-.098-.098-.238v-1.176q0-.154.098-.252t.238-.098h6.594q.154 0 .252.098t.098.252V71.2q0 1.204-.504 2.044-.504.826-1.4 1.26-.896.434-2.086.434zm7.436-.14q-.126 0-.21-.084-.084-.098-.084-.21 0-.07.014-.126l3.332-9.002q.042-.154.168-.266.126-.112.35-.112h1.792q.224 0 .35.112.126.112.168.266l3.332 9.002q.014.056.014.126 0 .112-.084.21-.084.084-.21.084H298.3q-.21 0-.308-.098t-.126-.182l-.602-1.568h-3.948l-.602 1.568q-.028.084-.126.182-.098.098-.308.098zm3.01-3.654h2.898l-1.442-4.032zm11.91 3.654q-.14 0-.252-.098-.098-.098-.098-.252V67.49l-2.016 1.554q-.126.098-.266.07-.126-.028-.224-.154l-.7-.91q-.084-.126-.07-.266.028-.14.154-.224l3.192-2.464q.084-.056.154-.07.084-.028.182-.028h1.484q.14 0 .238.098.098.098.098.252v9.1q0 .154-.098.252t-.238.098zm9.512 0q-.154 0-.252-.098t-.098-.252v-3.08l-3.276-5.922q-.014-.042-.028-.07-.014-.042-.014-.084 0-.112.084-.196.098-.098.21-.098h1.484q.196 0 .308.098.112.098.154.182l2.198 3.85 2.198-3.85q.042-.084.154-.182.112-.098.308-.098h1.484q.112 0 .196.098.098.084.098.196 0 .042-.014.084-.014.028-.028.07l-3.276 5.922v3.08q0 .154-.098.252t-.252.098zm10.356 0q-.224 0-.364-.126-.126-.126-.154-.308l-1.596-8.974q-.014-.028-.014-.056v-.042q0-.112.084-.196.084-.098.21-.098h1.47q.364 0 .406.294l1.05 5.922 1.134-3.682q.042-.112.14-.238t.322-.126h.882q.224 0 .322.126t.126.238l1.148 3.668 1.036-5.908q.042-.294.42-.294h1.47q.126 0 .21.098.084.084.084.196v.042q0 .028-.014.056l-1.596 8.974q-.028.182-.168.308-.126.126-.35.126h-1.134q-.224 0-.35-.112-.112-.126-.154-.252l-1.498-4.34-1.484 4.34q-.042.126-.168.252-.112.112-.35.112zm11.644 0q-.126 0-.21-.084-.084-.098-.084-.21 0-.042.014-.084l.028-.084 3.094-4.536-2.884-4.34q-.042-.084-.042-.168 0-.112.084-.196.084-.098.21-.098h1.722q.182 0 .28.098.112.098.168.182l1.876 2.786 1.89-2.786q.056-.084.168-.182.112-.098.294-.098h1.638q.112 0 .196.098.098.084.098.196 0 .098-.056.168l-2.884 4.326 3.108 4.55q.028.042.028.084.014.042.014.084 0 .112-.084.21-.084.084-.21.084h-1.778q-.182 0-.294-.098-.098-.098-.154-.168l-2.044-2.94-2.03 2.94q-.042.07-.154.168-.098.098-.294.098z" aria-label="JA1ZLO/JA1YWX" style="font-weight:600;font-size:14px;line-height:1;font-family:Rubik;-inkscape-font-specification:'Rubik Semi-Bold';text-align:center;letter-spacing:2.25px;text-anchor:middle;fill:#1b284e;stroke-width:.75"/></svg>
